<?xml version="1.0" encoding="utf-8"?>
<!-- Generator: Adobe Illustrator 23.1.0, SVG Export Plug-In . SVG Version: 6.00 Build 0)  -->
<svg version="1.1" id="Слой_1" xmlns="http://www.w3.org/2000/svg" xmlns:xlink="http://www.w3.org/1999/xlink" x="0px" y="0px"
	 viewBox="0 0 30.1 576.4" style="enable-background:new 0 0 30.1 576.4;" xml:space="preserve">
<style type="text/css">
	.st0{fill:#E2E2E1;}
</style>
<g id="XMLID_559_">
	<g id="XMLID_471_">
		<path id="XMLID_1091_" class="st0" d="M3.4,37.5c0.4,0,0.8,0.1,1.1,0.4c3.1,3.1,3.1,8.2,0,11.3c-1.9,1.9-1.9,5.1,0,7.1
			C6,57.8,6.8,59.8,6.8,62c0,2.1-0.8,4.1-2.3,5.7C3.5,68.6,3,69.8,3,71.2c0,1.3,0.5,2.6,1.5,3.5c1.5,1.5,2.3,3.5,2.3,5.7
			c0,2.1-0.8,4.1-2.3,5.7c-1.9,1.9-1.9,5.1,0,7.1c3.1,3.1,3.1,8.2,0,11.3c-0.6,0.6-1.5,0.6-2.1,0c-0.6-0.6-0.6-1.5,0-2.1
			c0.9-0.9,1.5-2.2,1.5-3.5c0-1.3-0.5-2.6-1.5-3.5c-3.1-3.1-3.1-8.2,0-11.3c0.9-0.9,1.5-2.2,1.5-3.5c0-1.3-0.5-2.6-1.5-3.5
			C0.8,75.3,0,73.3,0,71.2C0,69,0.8,67,2.3,65.5c1.9-1.9,1.9-5.1,0-7.1c-3.1-3.1-3.1-8.2,0-11.3c0.9-0.9,1.5-2.2,1.5-3.5
			c0-1.3-0.5-2.6-1.5-3.5c-0.6-0.6-0.6-1.5,0-2.1C2.6,37.6,3,37.5,3.4,37.5z"/>
	</g>
	<g id="XMLID_470_">
		<path id="XMLID_1090_" class="st0" d="M9.2,37.5c0.4,0,0.8,0.1,1.1,0.4c3.1,3.1,3.1,8.2,0,11.3c-1.9,1.9-1.9,5.1,0,7.1
			c1.5,1.5,2.3,3.5,2.3,5.7c0,2.1-0.8,4.1-2.3,5.7c-0.9,0.9-1.5,2.2-1.5,3.5c0,1.3,0.5,2.6,1.5,3.5c3.1,3.1,3.1,8.2,0,11.3
			c-1.9,1.9-1.9,5.1,0,7.1c3.1,3.1,3.1,8.2,0,11.3c-0.6,0.6-1.5,0.6-2.1,0c-0.6-0.6-0.6-1.5,0-2.1c1.9-1.9,1.9-5.1,0-7.1
			C5,92.1,5,87,8.2,83.9c0.9-0.9,1.5-2.2,1.5-3.5c0-1.3-0.5-2.6-1.5-3.5C5,73.7,5,68.6,8.2,65.5c1.9-1.9,1.9-5.1,0-7.1
			C5,55.3,5,50.2,8.2,47.1c1.9-1.9,1.9-5.1,0-7.1c-0.6-0.6-0.6-1.5,0-2.1C8.4,37.6,8.8,37.5,9.2,37.5z"/>
	</g>
	<g id="XMLID_469_">
		<path id="XMLID_1089_" class="st0" d="M15,37.5c0.4,0,0.8,0.1,1.1,0.4c3.1,3.1,3.1,8.2,0,11.3c-1.9,1.9-1.9,5.1,0,7.1
			c1.5,1.5,2.3,3.5,2.3,5.7c0,2.1-0.8,4.1-2.3,5.7c-0.9,0.9-1.5,2.2-1.5,3.5c0,1.3,0.5,2.6,1.5,3.5c1.5,1.5,2.3,3.5,2.3,5.7
			c0,2.1-0.8,4.1-2.3,5.7c-1.9,1.9-1.9,5.1,0,7.1c3.1,3.1,3.1,8.2,0,11.3c-0.6,0.6-1.5,0.6-2.1,0c-0.6-0.6-0.6-1.5,0-2.1
			c0.9-0.9,1.5-2.2,1.5-3.5c0-1.3-0.5-2.6-1.5-3.5c-3.1-3.1-3.1-8.2,0-11.3c0.9-0.9,1.5-2.2,1.5-3.5c0-1.3-0.5-2.6-1.5-3.5
			c-1.5-1.5-2.3-3.5-2.3-5.7c0-2.1,0.8-4.1,2.3-5.7c1.9-1.9,1.9-5.1,0-7.1c-3.1-3.1-3.1-8.2,0-11.3c0.9-0.9,1.5-2.2,1.5-3.5
			c0-1.3-0.5-2.6-1.5-3.5c-0.6-0.6-0.6-1.5,0-2.1C14.3,37.6,14.6,37.5,15,37.5z"/>
	</g>
	<g id="XMLID_468_">
		<path id="XMLID_1088_" class="st0" d="M20.8,37.1c0.4,0,0.8,0.1,1.1,0.4c1.5,1.5,2.3,3.5,2.3,5.7c0,2.1-0.8,4.1-2.3,5.7
			c-1.9,1.9-1.9,5.1,0,7.1c1.5,1.5,2.3,3.5,2.3,5.7c0,2.1-0.8,4.1-2.3,5.7c-1.9,1.9-1.9,5.1,0,7.1c3.1,3.1,3.1,8.2,0,11.3
			c-0.9,0.9-1.5,2.2-1.5,3.5s0.5,2.6,1.5,3.5c3.1,3.1,3.1,8.2,0,11.3c-0.9,0.9-1.4,2.1-1.5,3.4c0,0.8-0.8,1.4-1.6,1.5
			c-0.8,0-1.5-0.7-1.5-1.6c0.1-2,0.9-4,2.3-5.4c1.9-1.9,1.9-5.1,0-7.1c-1.5-1.5-2.3-3.5-2.3-5.7c0-2.1,0.8-4.1,2.3-5.7
			c0.9-0.9,1.5-2.2,1.5-3.5c0-1.3-0.5-2.6-1.5-3.5c-3.1-3.1-3.1-8.2,0-11.3c1.9-1.9,1.9-5.1,0-7.1c-3.1-3.1-3.1-8.2,0-11.3
			c0.9-0.9,1.5-2.2,1.5-3.5c0-1.3-0.5-2.6-1.5-3.5c-0.6-0.6-0.6-1.5,0-2.1C20.1,37.3,20.5,37.1,20.8,37.1z"/>
	</g>
	<g id="XMLID_467_">
		<path id="XMLID_1087_" class="st0" d="M26.6,36.7c0.4,0,0.8,0.1,1.1,0.4c3.1,3.1,3.1,8.2,0,11.3c-0.9,0.9-1.5,2.2-1.5,3.5
			c0,1.3,0.5,2.6,1.5,3.5c1.5,1.5,2.3,3.5,2.3,5.7c0,2.1-0.8,4.1-2.3,5.7c-1.9,1.9-1.9,5.1,0,7.1c3.1,3.1,3.1,8.2,0,11.3
			c-1.9,1.9-1.9,5.1,0,7.1c3.1,3.1,3.1,8.2,0,11.3c-0.9,0.9-1.4,2.1-1.5,3.4c0,0.8-0.7,1.5-1.6,1.4c-0.8,0-1.5-0.7-1.4-1.6
			c0.1-2,0.9-3.9,2.3-5.4c1.9-1.9,1.9-5.1,0-7.1c-3.1-3.1-3.1-8.2,0-11.3c1.9-1.9,1.9-5.1,0-7.1c-3.1-3.1-3.1-8.2,0-11.3
			c0.9-0.9,1.5-2.2,1.5-3.5c0-1.3-0.5-2.6-1.5-3.5c-3.1-3.1-3.1-8.2,0-11.3c1.9-1.9,1.9-5.1,0-7.1c-0.6-0.6-0.6-1.5,0-2.1
			C25.9,36.9,26.3,36.7,26.6,36.7z"/>
	</g>
</g>
<g id="XMLID_130_">
	<g id="XMLID_135_">
		<path id="XMLID_1086_" class="st0" d="M3.4,0.8c0.4,0,0.8,0.1,1.1,0.4c3.1,3.1,3.1,8.2,0,11.3C3.5,13.5,3,14.7,3,16.1
			s0.5,2.6,1.5,3.5c1.5,1.5,2.3,3.5,2.3,5.7c0,2.1-0.8,4.1-2.3,5.7c-1.9,1.9-1.9,5.1,0,7.1c3.1,3.1,3.1,8.2,0,11.3
			C3.5,50.2,3,51.5,3,52.8c0,1.3,0.5,2.6,1.5,3.5C6,57.9,6.8,59.9,6.8,62c0,2.1-0.8,4.1-2.3,5.7c-0.6,0.6-1.5,0.6-2.1,0
			c-0.6-0.6-0.6-1.5,0-2.1c0.9-0.9,1.5-2.2,1.5-3.5c0-1.3-0.5-2.6-1.5-3.5C0.8,57,0,55,0,52.8c0-2.1,0.8-4.1,2.3-5.7
			c1.9-1.9,1.9-5.1,0-7.1c-3.1-3.1-3.1-8.2,0-11.3c1.9-1.9,1.9-5.1,0-7.1C0.8,20.2,0,18.2,0,16.1c0-2.1,0.8-4.1,2.3-5.7
			c0.9-0.9,1.5-2.2,1.5-3.5c0-1.3-0.5-2.6-1.5-3.5c-0.6-0.6-0.6-1.5,0-2.1C2.6,0.9,3,0.8,3.4,0.8z"/>
	</g>
	<g id="XMLID_134_">
		<path id="XMLID_1085_" class="st0" d="M9.2,0.8c0.4,0,0.8,0.1,1.1,0.4c3.1,3.1,3.1,8.2,0,11.3c-0.9,0.9-1.5,2.2-1.5,3.5
			s0.5,2.6,1.5,3.5c1.5,1.5,2.3,3.5,2.3,5.7c0,2.1-0.8,4.1-2.3,5.7c-1.9,1.9-1.9,5.1,0,7.1c3.1,3.1,3.1,8.2,0,11.3
			c-1.9,1.9-1.9,5.1,0,7.1c1.5,1.5,2.3,3.5,2.3,5.7c0,2.1-0.8,4.1-2.3,5.7c-0.6,0.6-1.5,0.6-2.1,0c-0.6-0.6-0.6-1.5,0-2.1
			c0.9-0.9,1.5-2.2,1.5-3.5c0-1.3-0.5-2.6-1.5-3.5C6.6,57,5.8,55,5.8,52.8c0-2.1,0.8-4.1,2.3-5.7c1.9-1.9,1.9-5.1,0-7.1
			C5,37,5,31.9,8.2,28.8c1.9-1.9,1.9-5.1,0-7.1c-1.5-1.5-2.3-3.5-2.3-5.7c0-2.1,0.8-4.1,2.3-5.7c1.9-1.9,1.9-5.1,0-7.1
			c-0.6-0.6-0.6-1.5,0-2.1C8.4,0.9,8.8,0.8,9.2,0.8z"/>
	</g>
	<g id="XMLID_133_">
		<path id="XMLID_1084_" class="st0" d="M15,0.8c0.4,0,0.8,0.1,1.1,0.4c3.1,3.1,3.1,8.2,0,11.3c-0.9,0.9-1.5,2.2-1.5,3.5
			s0.5,2.6,1.5,3.5c1.5,1.5,2.3,3.5,2.3,5.7c0,2.1-0.8,4.1-2.3,5.7c-1.9,1.9-1.9,5.1,0,7.1c3.1,3.1,3.1,8.2,0,11.3
			c-0.9,0.9-1.5,2.2-1.5,3.5c0,1.3,0.5,2.6,1.5,3.5c1.5,1.5,2.3,3.5,2.3,5.7c0,2.1-0.8,4.1-2.3,5.7c-0.6,0.6-1.5,0.6-2.1,0
			c-0.6-0.6-0.6-1.5,0-2.1c0.9-0.9,1.5-2.2,1.5-3.5c0-1.3-0.5-2.6-1.5-3.5c-1.5-1.5-2.3-3.5-2.3-5.7c0-2.1,0.8-4.1,2.3-5.7
			c1.9-1.9,1.9-5.1,0-7.1c-3.1-3.1-3.1-8.2,0-11.3c1.9-1.9,1.9-5.1,0-7.1c-1.5-1.5-2.3-3.5-2.3-5.7c0-2.1,0.8-4.1,2.3-5.7
			c0.9-0.9,1.5-2.2,1.5-3.5c0-1.3-0.5-2.6-1.5-3.5c-0.6-0.6-0.6-1.5,0-2.1C14.3,0.9,14.6,0.8,15,0.8z"/>
	</g>
	<g id="XMLID_132_">
		<path id="XMLID_1083_" class="st0" d="M20.8,0.4c0.4,0,0.8,0.1,1.1,0.4C25,4,25,9,21.9,12.2c-0.9,0.9-1.5,2.2-1.5,3.5
			c0,1.3,0.5,2.6,1.5,3.5c1.5,1.5,2.3,3.5,2.3,5.7c0,2.1-0.8,4.1-2.3,5.7c-0.9,0.9-1.5,2.2-1.5,3.5c0,1.3,0.5,2.6,1.5,3.5
			c3.1,3.1,3.1,8.2,0,11.3C20,50.9,20,54,21.9,56c3.1,3.1,3.1,8.2,0,11.3c-0.9,0.9-1.4,2.1-1.5,3.4c0,0.8-0.8,1.4-1.6,1.5
			c-0.8,0-1.5-0.7-1.5-1.6c0.1-2,0.9-4,2.3-5.4c0.9-0.9,1.5-2.2,1.5-3.5c0-1.3-0.5-2.6-1.5-3.5c-3.1-3.1-3.1-8.2,0-11.3
			c0.9-0.9,1.5-2.2,1.5-3.5c0-1.3-0.5-2.6-1.5-3.5c-1.5-1.5-2.3-3.5-2.3-5.7c0-2.1,0.8-4.1,2.3-5.7c1.9-1.9,1.9-5.1,0-7.1
			c-1.5-1.5-2.3-3.5-2.3-5.7c0-2.1,0.8-4.1,2.3-5.7c0.9-0.9,1.5-2.2,1.5-3.5c0-1.3-0.5-2.6-1.5-3.5c-0.6-0.6-0.6-1.5,0-2.1
			C20.1,0.5,20.5,0.4,20.8,0.4z"/>
	</g>
	<g id="XMLID_131_">
		<path id="XMLID_1082_" class="st0" d="M26.6,0c0.4,0,0.8,0.1,1.1,0.4C29.2,2,30.1,4,30.1,6.1c0,2.1-0.8,4.1-2.3,5.7
			c-1.9,1.9-1.9,5.1,0,7.1c3.1,3.1,3.1,8.2,0,11.3c-1.9,1.9-1.9,5.1,0,7.1c1.5,1.5,2.3,3.5,2.3,5.7c0,2.1-0.8,4.1-2.3,5.7
			c-1.9,1.9-1.9,5.1,0,7.1c3.1,3.1,3.1,8.2,0,11.3c-0.9,0.9-1.4,2.1-1.5,3.4c0,0.8-0.7,1.5-1.6,1.4c-0.8,0-1.5-0.7-1.4-1.6
			c0.1-2,0.9-3.9,2.3-5.4c1.9-1.9,1.9-5.1,0-7.1c-3.1-3.1-3.1-8.2,0-11.3c0.9-0.9,1.5-2.2,1.5-3.5c0-1.3-0.5-2.6-1.5-3.5
			c-3.1-3.1-3.1-8.2,0-11.3c1.9-1.9,1.9-5.1,0-7.1c-3.1-3.1-3.1-8.2,0-11.3C26.5,8.7,27,7.4,27,6.1s-0.5-2.6-1.5-3.5
			C25,2,25,1,25.6,0.4C25.9,0.1,26.3,0,26.6,0z"/>
	</g>
</g>
<g id="XMLID_553_">
	<g id="XMLID_466_">
		<path id="XMLID_1081_" class="st0" d="M3.4,74.6c0.4,0,0.8,0.1,1.1,0.4c1.5,1.5,2.3,3.5,2.3,5.7c0,2.1-0.8,4.1-2.3,5.7
			C3.5,87.3,3,88.5,3,89.9c0,1.3,0.5,2.6,1.5,3.5c3.1,3.1,3.1,8.2,0,11.3c-0.9,0.9-1.5,2.2-1.5,3.5c0,1.3,0.5,2.6,1.5,3.5
			c3.1,3.1,3.1,8.2,0,11.3c-1.9,1.9-1.9,5.1,0,7.1c1.5,1.5,2.3,3.5,2.3,5.7c0,2.1-0.8,4.1-2.3,5.7C3.5,142.4,3,143.7,3,145
			c0,1.3,0.5,2.6,1.5,3.5c1.5,1.5,2.3,3.5,2.3,5.7s-0.8,4.1-2.3,5.7c-0.6,0.6-1.5,0.6-2.1,0c-0.6-0.6-0.6-1.5,0-2.1
			c0.9-0.9,1.5-2.2,1.5-3.5c0-1.3-0.5-2.6-1.5-3.5C0.8,149.2,0,147.1,0,145s0.8-4.1,2.3-5.7c0.9-0.9,1.5-2.2,1.5-3.5
			c0-1.3-0.5-2.6-1.5-3.5c-3.1-3.1-3.1-8.2,0-11.3c1.9-1.9,1.9-5.1,0-7.1c-1.5-1.5-2.3-3.5-2.3-5.7c0-2.1,0.8-4.1,2.3-5.7
			c1.9-1.9,1.9-5.1,0-7.1c-3.1-3.1-3.1-8.2,0-11.3c0.9-0.9,1.5-2.2,1.5-3.5c0-1.3-0.5-2.6-1.5-3.5c-0.6-0.6-0.6-1.5,0-2.1
			C2.6,74.7,3,74.6,3.4,74.6z"/>
	</g>
	<g id="XMLID_465_">
		<path id="XMLID_1080_" class="st0" d="M9.2,74.6c0.4,0,0.8,0.1,1.1,0.4c3.1,3.1,3.1,8.2,0,11.3c-0.9,0.9-1.5,2.2-1.5,3.5
			c0,1.3,0.5,2.6,1.5,3.5c3.1,3.1,3.1,8.2,0,11.3c-0.9,0.9-1.5,2.2-1.5,3.5c0,1.3,0.5,2.6,1.5,3.5c3.1,3.1,3.1,8.2,0,11.3
			c-1.9,1.9-1.9,5.1,0,7.1c3.1,3.1,3.1,8.2,0,11.3c-0.9,0.9-1.5,2.2-1.5,3.5c0,1.3,0.5,2.6,1.5,3.5c3.1,3.1,3.1,8.2,0,11.3
			c-0.6,0.6-1.5,0.6-2.1,0c-0.6-0.6-0.6-1.5,0-2.1c1.9-1.9,1.9-5.1,0-7.1c-1.5-1.5-2.3-3.5-2.3-5.7s0.8-4.1,2.3-5.7
			c1.9-1.9,1.9-5.1,0-7.1c-3.1-3.1-3.1-8.2,0-11.3c1.9-1.9,1.9-5.1,0-7.1c-1.5-1.5-2.3-3.5-2.3-5.7c0-2.1,0.8-4.1,2.3-5.7
			c1.9-1.9,1.9-5.1,0-7.1C5,92.4,5,87.3,8.2,84.2c1.9-1.9,1.9-5.1,0-7.1c-0.6-0.6-0.6-1.5,0-2.1C8.4,74.7,8.8,74.6,9.2,74.6z"/>
	</g>
	<g id="XMLID_464_">
		<path id="XMLID_1079_" class="st0" d="M15,74.6c0.4,0,0.8,0.1,1.1,0.4c1.5,1.5,2.3,3.5,2.3,5.7c0,2.1-0.8,4.1-2.3,5.7
			c-0.9,0.9-1.5,2.2-1.5,3.5c0,1.3,0.5,2.6,1.5,3.5c3.1,3.1,3.1,8.2,0,11.3c-0.9,0.9-1.5,2.2-1.5,3.5c0,1.3,0.5,2.6,1.5,3.5
			c3.1,3.1,3.1,8.2,0,11.3c-1.9,1.9-1.9,5.1,0,7.1c1.5,1.5,2.3,3.5,2.3,5.7c0,2.1-0.8,4.1-2.3,5.7c-0.9,0.9-1.5,2.2-1.5,3.5
			c0,1.3,0.5,2.6,1.5,3.5c1.5,1.5,2.3,3.5,2.3,5.7s-0.8,4.1-2.3,5.7c-0.6,0.6-1.5,0.6-2.1,0c-0.6-0.6-0.6-1.5,0-2.1
			c0.9-0.9,1.5-2.2,1.5-3.5c0-1.3-0.5-2.6-1.5-3.5c-1.5-1.5-2.3-3.5-2.3-5.7s0.8-4.1,2.3-5.7c0.9-0.9,1.5-2.2,1.5-3.5
			c0-1.3-0.5-2.6-1.5-3.5c-3.1-3.1-3.1-8.2,0-11.3c1.9-1.9,1.9-5.1,0-7.1c-1.5-1.5-2.3-3.5-2.3-5.7c0-2.1,0.8-4.1,2.3-5.7
			c1.9-1.9,1.9-5.1,0-7.1c-3.1-3.1-3.1-8.2,0-11.3c0.9-0.9,1.5-2.2,1.5-3.5c0-1.3-0.5-2.6-1.5-3.5c-0.6-0.6-0.6-1.5,0-2.1
			C14.3,74.7,14.6,74.6,15,74.6z"/>
	</g>
	<g id="XMLID_463_">
		<path id="XMLID_1078_" class="st0" d="M20.8,92.6c0.4,0,0.8,0.1,1.1,0.4c3.1,3.1,3.1,8.2,0,11.3c-0.9,0.9-1.5,2.2-1.5,3.5
			c0,1.3,0.5,2.6,1.5,3.5c1.5,1.5,2.3,3.5,2.3,5.7c0,2.1-0.8,4.1-2.3,5.7c-0.9,0.9-1.5,2.2-1.5,3.5s0.5,2.6,1.5,3.5
			c3.1,3.1,3.1,8.2,0,11.3c-1.9,1.9-1.9,5.1,0,7.1c1.5,1.5,2.3,3.5,2.3,5.7c0,2.1-0.8,4.1-2.3,5.7c-0.9,0.9-1.4,2.1-1.5,3.4
			c0,0.8-0.8,1.5-1.6,1.5c-0.8,0-1.5-0.7-1.5-1.6c0.1-2,0.9-4,2.3-5.4c0.9-0.9,1.5-2.2,1.5-3.5c0-1.3-0.5-2.6-1.5-3.5
			c-3.1-3.1-3.1-8.2,0-11.3c0.9-0.9,1.5-2.2,1.5-3.5c0-1.3-0.5-2.6-1.5-3.5c-1.5-1.5-2.3-3.5-2.3-5.7c0-2.1,0.8-4.1,2.3-5.7
			c1.9-1.9,1.9-5.1,0-7.1c-1.5-1.5-2.3-3.5-2.3-5.7c0-2.1,0.8-4.1,2.3-5.7c0.9-0.9,1.5-2.2,1.5-3.5c0-1.3-0.5-2.6-1.5-3.5
			c-0.6-0.6-0.6-1.5,0-2.1C20.1,92.7,20.5,92.6,20.8,92.6z"/>
	</g>
	<g id="XMLID_462_">
		<path id="XMLID_1077_" class="st0" d="M26.6,92.2c0.4,0,0.8,0.1,1.1,0.4c1.5,1.5,2.3,3.5,2.3,5.7c0,2.1-0.8,4.1-2.3,5.7
			c-1.9,1.9-1.9,5.1,0,7.1c3.1,3.1,3.1,8.2,0,11.3c-1.9,1.9-1.9,5.1,0,7.1c1.5,1.5,2.3,3.5,2.3,5.7c0,2.1-0.8,4.1-2.3,5.7
			c-1.9,1.9-1.9,5.1,0,7.1c3.1,3.1,3.1,8.2,0,11.3c-0.9,0.9-1.4,2.1-1.5,3.4c0,0.8-0.7,1.5-1.6,1.4c-0.8,0-1.5-0.7-1.4-1.6
			c0.1-2,0.9-3.9,2.3-5.4c1.9-1.9,1.9-5.1,0-7.1c-3.1-3.1-3.1-8.2,0-11.3c0.9-0.9,1.5-2.2,1.5-3.5c0-1.3-0.5-2.6-1.5-3.5
			c-3.1-3.1-3.1-8.2,0-11.3c1.9-1.9,1.9-5.1,0-7.1c-3.1-3.1-3.1-8.2,0-11.3c0.9-0.9,1.5-2.2,1.5-3.5c0-1.3-0.5-2.6-1.5-3.5
			c-0.6-0.6-0.6-1.5,0-2.1C25.9,92.3,26.3,92.2,26.6,92.2z"/>
	</g>
</g>
<g id="XMLID_547_">
	<g id="XMLID_461_">
		<path id="XMLID_1076_" class="st0" d="M3.4,130c0.4,0,0.8,0.1,1.1,0.4c1.5,1.5,2.3,3.5,2.3,5.7c0,2.1-0.8,4.1-2.3,5.7
			C3.5,142.7,3,144,3,145.3c0,1.3,0.5,2.6,1.5,3.5c3.1,3.1,3.1,8.2,0,11.3c-1.9,1.9-1.9,5.1,0,7.1c3.1,3.1,3.1,8.2,0,11.3
			c-0.9,0.9-1.5,2.2-1.5,3.5c0,1.3,0.5,2.6,1.5,3.5c3.1,3.1,3.1,8.2,0,11.3c-0.9,0.9-1.5,2.2-1.5,3.5c0,1.3,0.5,2.6,1.5,3.5
			c1.5,1.5,2.3,3.5,2.3,5.7c0,2.1-0.8,4.1-2.3,5.7c-0.6,0.6-1.5,0.6-2.1,0c-0.6-0.6-0.6-1.5,0-2.1c0.9-0.9,1.5-2.2,1.5-3.5
			c0-1.3-0.5-2.6-1.5-3.5c-1.5-1.5-2.3-3.5-2.3-5.7c0-2.1,0.8-4.1,2.3-5.7c1.9-1.9,1.9-5.1,0-7.1c-1.5-1.5-2.3-3.5-2.3-5.7
			c0-2.1,0.8-4.1,2.3-5.7c1.9-1.9,1.9-5.1,0-7.1c-1.5-1.5-2.3-3.5-2.3-5.7s0.8-4.1,2.3-5.7c1.9-1.9,1.9-5.1,0-7.1
			c-1.5-1.5-2.3-3.5-2.3-5.7c0-2.1,0.8-4.1,2.3-5.7c0.9-0.9,1.5-2.2,1.5-3.5c0-1.3-0.5-2.6-1.5-3.5c-0.6-0.6-0.6-1.5,0-2.1
			C2.6,130.2,3,130,3.4,130z"/>
	</g>
	<g id="XMLID_460_">
		<path id="XMLID_1075_" class="st0" d="M9.2,130c0.4,0,0.8,0.1,1.1,0.4c3.1,3.1,3.1,8.2,0,11.3c-0.9,0.9-1.5,2.2-1.5,3.5
			c0,1.3,0.5,2.6,1.5,3.5c3.1,3.1,3.1,8.2,0,11.3c-1.9,1.9-1.9,5.1,0,7.1c3.1,3.1,3.1,8.2,0,11.3c-1.9,1.9-1.9,5.1,0,7.1
			c3.1,3.1,3.1,8.2,0,11.3c-0.9,0.9-1.5,2.2-1.5,3.5c0,1.3,0.5,2.6,1.5,3.5c3.1,3.1,3.1,8.2,0,11.3c-0.6,0.6-1.5,0.6-2.1,0
			c-0.6-0.6-0.6-1.5,0-2.1c1.9-1.9,1.9-5.1,0-7.1c-1.5-1.5-2.3-3.5-2.3-5.7c0-2.1,0.8-4.1,2.3-5.7c1.9-1.9,1.9-5.1,0-7.1
			c-1.5-1.5-2.3-3.5-2.3-5.7c0-2.1,0.8-4.1,2.3-5.7c1.9-1.9,1.9-5.1,0-7.1c-3.1-3.1-3.1-8.2,0-11.3c1.9-1.9,1.9-5.1,0-7.1
			c-1.5-1.5-2.3-3.5-2.3-5.7c0-2.1,0.8-4.1,2.3-5.7c1.9-1.9,1.9-5.1,0-7.1c-0.6-0.6-0.6-1.5,0-2.1C8.4,130.2,8.8,130,9.2,130z"/>
	</g>
	<g id="XMLID_459_">
		<path id="XMLID_1074_" class="st0" d="M15,130c0.4,0,0.8,0.1,1.1,0.4c1.5,1.5,2.3,3.5,2.3,5.7c0,2.1-0.8,4.1-2.3,5.7
			c-0.9,0.9-1.5,2.2-1.5,3.5c0,1.3,0.5,2.6,1.5,3.5c3.1,3.1,3.1,8.2,0,11.3c-1.9,1.9-1.9,5.1,0,7.1c3.1,3.1,3.1,8.2,0,11.3
			c-0.9,0.9-1.5,2.2-1.5,3.5c0,1.3,0.5,2.6,1.5,3.5c3.1,3.1,3.1,8.2,0,11.3c-0.9,0.9-1.5,2.2-1.5,3.5c0,1.3,0.5,2.6,1.5,3.5
			c1.5,1.5,2.3,3.5,2.3,5.7c0,2.1-0.8,4.1-2.3,5.7c-0.6,0.6-1.5,0.6-2.1,0c-0.6-0.6-0.6-1.5,0-2.1c0.9-0.9,1.5-2.2,1.5-3.5
			c0-1.3-0.5-2.6-1.5-3.5c-1.5-1.5-2.3-3.5-2.3-5.7c0-2.1,0.8-4.1,2.3-5.7c1.9-1.9,1.9-5.1,0-7.1c-1.5-1.5-2.3-3.5-2.3-5.7
			c0-2.1,0.8-4.1,2.3-5.7c1.9-1.9,1.9-5.1,0-7.1c-1.5-1.5-2.3-3.5-2.3-5.7s0.8-4.1,2.3-5.7c1.9-1.9,1.9-5.1,0-7.1
			c-1.5-1.5-2.3-3.5-2.3-5.7c0-2.1,0.8-4.1,2.3-5.7c0.9-0.9,1.5-2.2,1.5-3.5c0-1.3-0.5-2.6-1.5-3.5c-0.6-0.6-0.6-1.5,0-2.1
			C14.3,130.2,14.6,130,15,130z"/>
	</g>
	<g id="XMLID_458_">
		<path id="XMLID_1073_" class="st0" d="M20.8,148c0.4,0,0.8,0.1,1.1,0.4c1.5,1.5,2.3,3.5,2.3,5.7c0,2.1-0.8,4.1-2.3,5.7
			c-0.9,0.9-1.5,2.2-1.5,3.5s0.5,2.6,1.5,3.5c1.5,1.5,2.3,3.5,2.3,5.7s-0.8,4.1-2.3,5.7c-1.9,1.9-1.9,5.1,0,7.1
			c1.5,1.5,2.3,3.5,2.3,5.7c0,2.1-0.8,4.1-2.3,5.7c-0.9,0.9-1.5,2.2-1.5,3.5c0,1.3,0.5,2.6,1.5,3.5c3.1,3.1,3.1,8.2,0,11.3
			c-0.9,0.9-1.4,2.1-1.5,3.4c0,0.8-0.8,1.5-1.6,1.5c-0.8,0-1.5-0.7-1.5-1.6c0.1-2,0.9-4,2.3-5.4c0.9-0.9,1.5-2.2,1.5-3.5
			c0-1.3-0.5-2.6-1.5-3.5c-3.1-3.1-3.1-8.2,0-11.3c0.9-0.9,1.5-2.2,1.5-3.5c0-1.3-0.5-2.6-1.5-3.5c-1.5-1.5-2.3-3.5-2.3-5.7
			c0-2.1,0.8-4.1,2.3-5.7c0.9-0.9,1.5-2.2,1.5-3.5c0-1.3-0.5-2.6-1.5-3.5c-1.5-1.5-2.3-3.5-2.3-5.7c0-2.1,0.8-4.1,2.3-5.7
			c0.9-0.9,1.5-2.2,1.5-3.5c0-1.3-0.5-2.6-1.5-3.5c-0.6-0.6-0.6-1.5,0-2.1C20.1,148.2,20.5,148,20.8,148z"/>
	</g>
	<g id="XMLID_457_">
		<path id="XMLID_1072_" class="st0" d="M26.6,147.6c0.4,0,0.8,0.1,1.1,0.4c3.1,3.1,3.1,8.2,0,11.3c-0.9,0.9-1.5,2.2-1.5,3.5
			s0.5,2.6,1.5,3.5c3.1,3.1,3.1,8.2,0,11.3c-1.9,1.9-1.9,5.1,0,7.1c1.5,1.5,2.3,3.5,2.3,5.7c0,2.1-0.8,4.1-2.3,5.7
			c-1.9,1.9-1.9,5.1,0,7.1c3.1,3.1,3.1,8.2,0,11.3c-0.9,0.9-1.4,2.1-1.5,3.4c0,0.8-0.7,1.5-1.6,1.4c-0.8,0-1.5-0.7-1.4-1.6
			c0.1-2,0.9-3.9,2.3-5.4c1.9-1.9,1.9-5.1,0-7.1c-3.1-3.1-3.1-8.2,0-11.3c0.9-0.9,1.5-2.2,1.5-3.5c0-1.3-0.5-2.6-1.5-3.5
			c-3.1-3.1-3.1-8.2,0-11.3c1.9-1.9,1.9-5.1,0-7.1c-1.5-1.5-2.3-3.5-2.3-5.7c0-2.1,0.8-4.1,2.3-5.7c1.9-1.9,1.9-5.1,0-7.1
			c-0.6-0.6-0.6-1.5,0-2.1C25.9,147.8,26.3,147.6,26.6,147.6z"/>
	</g>
</g>
<g id="XMLID_541_">
	<g id="XMLID_456_">
		<path id="XMLID_1071_" class="st0" d="M3.4,185.5c0.4,0,0.8,0.1,1.1,0.4c1.5,1.5,2.3,3.5,2.3,5.7c0,2.1-0.8,4.1-2.3,5.7
			c-0.9,0.9-1.5,2.2-1.5,3.5s0.5,2.6,1.5,3.5c1.5,1.5,2.3,3.5,2.3,5.7s-0.8,4.1-2.3,5.7c-0.9,0.9-1.5,2.2-1.5,3.5
			c0,1.3,0.5,2.6,1.5,3.5c3.1,3.1,3.1,8.2,0,11.3C3.5,235,3,236.2,3,237.5c0,1.3,0.5,2.6,1.5,3.5c3.1,3.1,3.1,8.2,0,11.3
			c-0.9,0.9-1.5,2.2-1.5,3.5c0,1.3,0.5,2.6,1.5,3.5c1.5,1.5,2.3,3.5,2.3,5.7s-0.8,4.1-2.3,5.7c-0.6,0.6-1.5,0.6-2.1,0
			c-0.6-0.6-0.6-1.5,0-2.1c0.9-0.9,1.5-2.2,1.5-3.5c0-1.3-0.5-2.6-1.5-3.5c-1.5-1.5-2.3-3.5-2.3-5.7s0.8-4.1,2.3-5.7
			c0.9-0.9,1.5-2.2,1.5-3.5c0-1.3-0.5-2.6-1.5-3.5c-1.5-1.5-2.3-3.5-2.3-5.7c0-2.1,0.8-4.1,2.3-5.7c1.9-1.9,1.9-5.1,0-7.1
			c-1.5-1.5-2.3-3.5-2.3-5.7s0.8-4.1,2.3-5.7c1.9-1.9,1.9-5.1,0-7.1c-3.1-3.1-3.1-8.2,0-11.3c0.9-0.9,1.5-2.2,1.5-3.5
			c0-1.3-0.5-2.6-1.5-3.5c-0.6-0.6-0.6-1.5,0-2.1C2.6,185.6,3,185.5,3.4,185.5z"/>
	</g>
	<g id="XMLID_455_">
		<path id="XMLID_1070_" class="st0" d="M9.2,185.5c0.4,0,0.8,0.1,1.1,0.4c3.1,3.1,3.1,8.2,0,11.3c-1.9,1.9-1.9,5.1,0,7.1
			c3.1,3.1,3.1,8.2,0,11.3c-1.9,1.9-1.9,5.1,0,7.1c3.1,3.1,3.1,8.2,0,11.3c-1.9,1.9-1.9,5.1,0,7.1c3.1,3.1,3.1,8.2,0,11.3
			c-0.9,0.9-1.5,2.2-1.5,3.5c0,1.3,0.5,2.6,1.5,3.5c3.1,3.1,3.1,8.2,0,11.3c-0.6,0.6-1.5,0.6-2.1,0c-0.6-0.6-0.6-1.5,0-2.1
			c1.9-1.9,1.9-5.1,0-7.1c-1.5-1.5-2.3-3.5-2.3-5.7s0.8-4.1,2.3-5.7c1.9-1.9,1.9-5.1,0-7.1c-3.1-3.1-3.1-8.2,0-11.3
			c1.9-1.9,1.9-5.1,0-7.1c-3.1-3.1-3.1-8.2,0-11.3c1.9-1.9,1.9-5.1,0-7.1c-3.1-3.1-3.1-8.2,0-11.3c1.9-1.9,1.9-5.1,0-7.1
			c-0.6-0.6-0.6-1.5,0-2.1C8.4,185.6,8.8,185.5,9.2,185.5z"/>
	</g>
	<g id="XMLID_454_">
		<path id="XMLID_1069_" class="st0" d="M15,185.5c0.4,0,0.8,0.1,1.1,0.4c1.5,1.5,2.3,3.5,2.3,5.7c0,2.1-0.8,4.1-2.3,5.7
			c-0.9,0.9-1.5,2.2-1.5,3.5s0.5,2.6,1.5,3.5c1.5,1.5,2.3,3.5,2.3,5.7s-0.8,4.1-2.3,5.7c-0.9,0.9-1.5,2.2-1.5,3.5
			c0,1.3,0.5,2.6,1.5,3.5c3.1,3.1,3.1,8.2,0,11.3c-0.9,0.9-1.5,2.2-1.5,3.5c0,1.3,0.5,2.6,1.5,3.5c3.1,3.1,3.1,8.2,0,11.3
			c-0.9,0.9-1.5,2.2-1.5,3.5c0,1.3,0.5,2.6,1.5,3.5c1.5,1.5,2.3,3.5,2.3,5.7s-0.8,4.1-2.3,5.7c-0.6,0.6-1.5,0.6-2.1,0
			c-0.6-0.6-0.6-1.5,0-2.1c0.9-0.9,1.5-2.2,1.5-3.5c0-1.3-0.5-2.6-1.5-3.5c-1.5-1.5-2.3-3.5-2.3-5.7s0.8-4.1,2.3-5.7
			c0.9-0.9,1.5-2.2,1.5-3.5c0-1.3-0.5-2.6-1.5-3.5c-1.5-1.5-2.3-3.5-2.3-5.7c0-2.1,0.8-4.1,2.3-5.7c1.9-1.9,1.9-5.1,0-7.1
			c-1.5-1.5-2.3-3.5-2.3-5.7s0.8-4.1,2.3-5.7c1.9-1.9,1.9-5.1,0-7.1c-3.1-3.1-3.1-8.2,0-11.3c0.9-0.9,1.5-2.2,1.5-3.5
			c0-1.3-0.5-2.6-1.5-3.5c-0.6-0.6-0.6-1.5,0-2.1C14.3,185.6,14.6,185.5,15,185.5z"/>
	</g>
	<g id="XMLID_453_">
		<path id="XMLID_1068_" class="st0" d="M20.8,203.5c0.4,0,0.8,0.1,1.1,0.4c1.5,1.5,2.3,3.5,2.3,5.7s-0.8,4.1-2.3,5.7
			c-1.9,1.9-1.9,5.1,0,7.1c1.5,1.5,2.3,3.5,2.3,5.7c0,2.1-0.8,4.1-2.3,5.7c-1.9,1.9-1.9,5.1,0,7.1c3.1,3.1,3.1,8.2,0,11.3
			c-0.9,0.9-1.5,2.2-1.5,3.5s0.5,2.6,1.5,3.5c3.1,3.1,3.1,8.2,0,11.3c-0.9,0.9-1.4,2.1-1.5,3.4c0,0.8-0.8,1.5-1.6,1.5
			c-0.8,0-1.5-0.7-1.5-1.6c0.1-2,0.9-4,2.3-5.4c1.9-1.9,1.9-5.1,0-7.1c-1.5-1.5-2.3-3.5-2.3-5.7c0-2.1,0.8-4.1,2.3-5.7
			c1.9-1.9,1.9-5.1,0-7.1c-1.5-1.5-2.3-3.5-2.3-5.7c0-2.1,0.8-4.1,2.3-5.7c0.9-0.9,1.5-2.2,1.5-3.5c0-1.3-0.5-2.6-1.5-3.5
			c-3.1-3.1-3.1-8.2,0-11.3c0.9-0.9,1.5-2.2,1.5-3.5c0-1.3-0.5-2.6-1.5-3.5c-0.6-0.6-0.6-1.5,0-2.1
			C20.1,203.6,20.5,203.5,20.8,203.5z"/>
	</g>
	<g id="XMLID_452_">
		<path id="XMLID_1067_" class="st0" d="M26.6,203.1c0.4,0,0.8,0.1,1.1,0.4c3.1,3.1,3.1,8.2,0,11.3c-1.9,1.9-1.9,5.1,0,7.1
			c3.1,3.1,3.1,8.2,0,11.3c-1.9,1.9-1.9,5.1,0,7.1c1.5,1.5,2.3,3.5,2.3,5.7c0,2.1-0.8,4.1-2.3,5.7c-1.9,1.9-1.9,5.1,0,7.1
			c1.5,1.5,2.3,3.5,2.3,5.7s-0.8,4.1-2.3,5.7c-0.9,0.9-1.4,2.1-1.5,3.4c0,0.8-0.7,1.5-1.6,1.4c-0.8,0-1.5-0.7-1.4-1.6
			c0.1-2,0.9-3.9,2.3-5.4c1.9-1.9,1.9-5.1,0-7.1c-3.1-3.1-3.1-8.2,0-11.3c0.9-0.9,1.5-2.2,1.5-3.5c0-1.3-0.5-2.6-1.5-3.5
			c-3.1-3.1-3.1-8.2,0-11.3c1.9-1.9,1.9-5.1,0-7.1c-1.5-1.5-2.3-3.5-2.3-5.7c0-2.1,0.8-4.1,2.3-5.7c1.9-1.9,1.9-5.1,0-7.1
			c-0.6-0.6-0.6-1.5,0-2.1C25.9,203.3,26.3,203.1,26.6,203.1z"/>
	</g>
</g>
<g id="XMLID_534_">
	<g id="XMLID_451_">
		<path id="XMLID_1066_" class="st0" d="M3.4,241c0.4,0,0.8,0.1,1.1,0.4c1.5,1.5,2.3,3.5,2.3,5.7s-0.8,4.1-2.3,5.7
			c-0.9,0.9-1.5,2.2-1.5,3.5c0,1.3,0.5,2.6,1.5,3.5c1.5,1.5,2.3,3.5,2.3,5.7c0,2.1-0.8,4.1-2.3,5.7C3.5,272,3,273.3,3,274.6
			c0,1.3,0.5,2.6,1.5,3.5c3.1,3.1,3.1,8.2,0,11.3C3.5,290.4,3,291.7,3,293c0,1.3,0.5,2.6,1.5,3.5c3.1,3.1,3.1,8.2,0,11.3
			c-0.9,0.9-1.5,2.2-1.5,3.5c0,1.3,0.5,2.6,1.5,3.5c1.5,1.5,2.3,3.5,2.3,5.7s-0.8,4.1-2.3,5.7c-0.6,0.6-1.5,0.6-2.1,0
			c-0.6-0.6-0.6-1.5,0-2.1c0.9-0.9,1.5-2.2,1.5-3.5c0-1.3-0.5-2.6-1.5-3.5c-3.1-3.1-3.1-8.2,0-11.3c0.9-0.9,1.5-2.2,1.5-3.5
			c0-1.3-0.5-2.6-1.5-3.5C0.8,297.2,0,295.1,0,293c0-2.1,0.8-4.1,2.3-5.7c1.9-1.9,1.9-5.1,0-7.1c-1.5-1.5-2.3-3.5-2.3-5.7
			c0-2.1,0.8-4.1,2.3-5.7c1.9-1.9,1.9-5.1,0-7.1c-1.5-1.5-2.3-3.5-2.3-5.7c0-2.1,0.8-4.1,2.3-5.7c0.9-0.9,1.5-2.2,1.5-3.5
			c0-1.3-0.5-2.6-1.5-3.5c-0.6-0.6-0.6-1.5,0-2.1C2.6,241.1,3,241,3.4,241z"/>
	</g>
	<g id="XMLID_450_">
		<path id="XMLID_1065_" class="st0" d="M9.2,241c0.4,0,0.8,0.1,1.1,0.4c3.1,3.1,3.1,8.2,0,11.3c-0.9,0.9-1.5,2.2-1.5,3.5
			c0,1.3,0.5,2.6,1.5,3.5c3.1,3.1,3.1,8.2,0,11.3c-1.9,1.9-1.9,5.1,0,7.1c3.1,3.1,3.1,8.2,0,11.3c-1.9,1.9-1.9,5.1,0,7.1
			c3.1,3.1,3.1,8.2,0,11.3c-1.9,1.9-1.9,5.1,0,7.1c3.1,3.1,3.1,8.2,0,11.3c-0.6,0.6-1.5,0.6-2.1,0c-0.6-0.6-0.6-1.5,0-2.1
			c1.9-1.9,1.9-5.1,0-7.1c-3.1-3.1-3.1-8.2,0-11.3c1.9-1.9,1.9-5.1,0-7.1c-3.1-3.1-3.1-8.2,0-11.3c1.9-1.9,1.9-5.1,0-7.1
			c-3.1-3.1-3.1-8.2,0-11.3c1.9-1.9,1.9-5.1,0-7.1c-1.5-1.5-2.3-3.5-2.3-5.7c0-2.1,0.8-4.1,2.3-5.7c1.9-1.9,1.9-5.1,0-7.1
			c-0.6-0.6-0.6-1.5,0-2.1C8.4,241.1,8.8,241,9.2,241z"/>
	</g>
	<g id="XMLID_449_">
		<path id="XMLID_1064_" class="st0" d="M15,241c0.4,0,0.8,0.1,1.1,0.4c1.5,1.5,2.3,3.5,2.3,5.7s-0.8,4.1-2.3,5.7
			c-0.9,0.9-1.5,2.2-1.5,3.5c0,1.3,0.5,2.6,1.5,3.5c1.5,1.5,2.3,3.5,2.3,5.7c0,2.1-0.8,4.1-2.3,5.7c-0.9,0.9-1.5,2.2-1.5,3.5
			c0,1.3,0.5,2.6,1.5,3.5c3.1,3.1,3.1,8.2,0,11.3c-0.9,0.9-1.5,2.2-1.5,3.5c0,1.3,0.5,2.6,1.5,3.5c3.1,3.1,3.1,8.2,0,11.3
			c-0.9,0.9-1.5,2.2-1.5,3.5c0,1.3,0.5,2.6,1.5,3.5c1.5,1.5,2.3,3.5,2.3,5.7s-0.8,4.1-2.3,5.7c-0.6,0.6-1.5,0.6-2.1,0
			c-0.6-0.6-0.6-1.5,0-2.1c0.9-0.9,1.5-2.2,1.5-3.5c0-1.3-0.5-2.6-1.5-3.5c-3.1-3.1-3.1-8.2,0-11.3c0.9-0.9,1.5-2.2,1.5-3.5
			c0-1.3-0.5-2.6-1.5-3.5c-1.5-1.5-2.3-3.5-2.3-5.7c0-2.1,0.8-4.1,2.3-5.7c1.9-1.9,1.9-5.1,0-7.1c-1.5-1.5-2.3-3.5-2.3-5.7
			c0-2.1,0.8-4.1,2.3-5.7c1.9-1.9,1.9-5.1,0-7.1c-1.5-1.5-2.3-3.5-2.3-5.7c0-2.1,0.8-4.1,2.3-5.7c0.9-0.9,1.5-2.2,1.5-3.5
			c0-1.3-0.5-2.6-1.5-3.5c-0.6-0.6-0.6-1.5,0-2.1C14.3,241.1,14.6,241,15,241z"/>
	</g>
	<g id="XMLID_448_">
		<path id="XMLID_1063_" class="st0" d="M20.8,259c0.4,0,0.8,0.1,1.1,0.4c1.5,1.5,2.3,3.5,2.3,5.7c0,2.1-0.8,4.1-2.3,5.7
			c-0.9,0.9-1.5,2.2-1.5,3.5c0,1.3,0.5,2.6,1.5,3.5c1.5,1.5,2.3,3.5,2.3,5.7s-0.8,4.1-2.3,5.7c-1.9,1.9-1.9,5.1,0,7.1
			c3.1,3.1,3.1,8.2,0,11.3c-0.9,0.9-1.5,2.2-1.5,3.5c0,1.3,0.5,2.6,1.5,3.5c3.1,3.1,3.1,8.2,0,11.3c-0.9,0.9-1.4,2.1-1.5,3.4
			c0,0.8-0.8,1.5-1.6,1.5c-0.8,0-1.5-0.7-1.5-1.6c0.1-2,0.9-4,2.3-5.4c0.9-0.9,1.5-2.2,1.5-3.5c0-1.3-0.5-2.6-1.5-3.5
			c-1.5-1.5-2.3-3.5-2.3-5.7s0.8-4.1,2.3-5.7c0.9-0.9,1.5-2.2,1.5-3.5s-0.5-2.6-1.5-3.5c-1.5-1.5-2.3-3.5-2.3-5.7s0.8-4.1,2.3-5.7
			c1.9-1.9,1.9-5.1,0-7.1c-1.5-1.5-2.3-3.5-2.3-5.7s0.8-4.1,2.3-5.7c0.9-0.9,1.5-2.2,1.5-3.5c0-1.3-0.5-2.6-1.5-3.5
			c-0.6-0.6-0.6-1.5,0-2.1C20.1,259.1,20.5,259,20.8,259z"/>
	</g>
	<g id="XMLID_447_">
		<path id="XMLID_1062_" class="st0" d="M26.6,258.6c0.4,0,0.8,0.1,1.1,0.4c3.1,3.1,3.1,8.2,0,11.3c-1.9,1.9-1.9,5.1,0,7.1
			c3.1,3.1,3.1,8.2,0,11.3c-1.9,1.9-1.9,5.1,0,7.1c1.5,1.5,2.3,3.5,2.3,5.7s-0.8,4.1-2.3,5.7c-1.9,1.9-1.9,5.1,0,7.1
			c3.1,3.1,3.1,8.2,0,11.3c-0.9,0.9-1.4,2.1-1.5,3.4c0,0.8-0.7,1.5-1.6,1.4c-0.8,0-1.5-0.7-1.4-1.6c0.1-2,0.9-3.9,2.3-5.4
			c1.9-1.9,1.9-5.1,0-7.1c-3.1-3.1-3.1-8.2,0-11.3c0.9-0.9,1.5-2.2,1.5-3.5c0-1.3-0.5-2.6-1.5-3.5c-3.1-3.1-3.1-8.2,0-11.3
			c1.9-1.9,1.9-5.1,0-7.1c-1.5-1.5-2.3-3.5-2.3-5.7s0.8-4.1,2.3-5.7c1.9-1.9,1.9-5.1,0-7.1c-0.6-0.6-0.6-1.5,0-2.1
			C25.9,258.7,26.3,258.6,26.6,258.6z"/>
	</g>
</g>
<g id="XMLID_528_">
	<g id="XMLID_446_">
		<path id="XMLID_1061_" class="st0" d="M3.4,296.4c0.4,0,0.8,0.1,1.1,0.4c1.5,1.5,2.3,3.5,2.3,5.7c0,2.1-0.8,4.1-2.3,5.7
			c-0.9,0.9-1.5,2.2-1.5,3.5c0,1.3,0.5,2.6,1.5,3.5c3.1,3.1,3.1,8.2,0,11.3c-0.9,0.9-1.5,2.2-1.5,3.5c0,1.3,0.5,2.6,1.5,3.5
			c3.1,3.1,3.1,8.2,0,11.3c-0.9,0.9-1.5,2.2-1.5,3.5c0,1.3,0.5,2.6,1.5,3.5c3.1,3.1,3.1,8.2,0,11.3c-0.9,0.9-1.5,2.2-1.5,3.5
			c0,1.3,0.5,2.6,1.5,3.5c1.5,1.5,2.3,3.5,2.3,5.7c0,2.1-0.8,4.1-2.3,5.7c-0.6,0.6-1.5,0.6-2.1,0c-0.6-0.6-0.6-1.5,0-2.1
			c0.9-0.9,1.5-2.2,1.5-3.5c0-1.3-0.5-2.6-1.5-3.5c-3.1-3.1-3.1-8.2,0-11.3c0.9-0.9,1.5-2.2,1.5-3.5c0-1.3-0.5-2.6-1.5-3.5
			c-3.1-3.1-3.1-8.2,0-11.3c1.9-1.9,1.9-5.1,0-7.1c-1.5-1.5-2.3-3.5-2.3-5.7s0.8-4.1,2.3-5.7c1.9-1.9,1.9-5.1,0-7.1
			c-1.5-1.5-2.3-3.5-2.3-5.7c0-2.1,0.8-4.1,2.3-5.7c0.9-0.9,1.5-2.2,1.5-3.5c0-1.3-0.5-2.6-1.5-3.5c-0.6-0.6-0.6-1.5,0-2.1
			C2.6,296.6,3,296.4,3.4,296.4z"/>
	</g>
	<g id="XMLID_445_">
		<path id="XMLID_1060_" class="st0" d="M9.2,296.4c0.4,0,0.8,0.1,1.1,0.4c3.1,3.1,3.1,8.2,0,11.3c-0.9,0.9-1.5,2.2-1.5,3.5
			c0,1.3,0.5,2.6,1.5,3.5c3.1,3.1,3.1,8.2,0,11.3c-1.9,1.9-1.9,5.1,0,7.1c3.1,3.1,3.1,8.2,0,11.3c-1.9,1.9-1.9,5.1,0,7.1
			c3.1,3.1,3.1,8.2,0,11.3c-1.9,1.9-1.9,5.1,0,7.1c3.1,3.1,3.1,8.2,0,11.3c-0.6,0.6-1.5,0.6-2.1,0c-0.6-0.6-0.6-1.5,0-2.1
			c1.9-1.9,1.9-5.1,0-7.1c-3.1-3.1-3.1-8.2,0-11.3c1.9-1.9,1.9-5.1,0-7.1c-3.1-3.1-3.1-8.2,0-11.3c1.9-1.9,1.9-5.1,0-7.1
			c-3.1-3.1-3.1-8.2,0-11.3c1.9-1.9,1.9-5.1,0-7.1c-1.5-1.5-2.3-3.5-2.3-5.7c0-2.1,0.8-4.1,2.3-5.7c1.9-1.9,1.9-5.1,0-7.1
			c-0.6-0.6-0.6-1.5,0-2.1C8.4,296.6,8.8,296.4,9.2,296.4z"/>
	</g>
	<g id="XMLID_444_">
		<path id="XMLID_1059_" class="st0" d="M15,296.4c0.4,0,0.8,0.1,1.1,0.4c1.5,1.5,2.3,3.5,2.3,5.7c0,2.1-0.8,4.1-2.3,5.7
			c-0.9,0.9-1.5,2.2-1.5,3.5c0,1.3,0.5,2.6,1.5,3.5c3.1,3.1,3.1,8.2,0,11.3c-0.9,0.9-1.5,2.2-1.5,3.5c0,1.3,0.5,2.6,1.5,3.5
			c3.1,3.1,3.1,8.2,0,11.3c-0.9,0.9-1.5,2.2-1.5,3.5c0,1.3,0.5,2.6,1.5,3.5c3.1,3.1,3.1,8.2,0,11.3c-0.9,0.9-1.5,2.2-1.5,3.5
			c0,1.3,0.5,2.6,1.5,3.5c1.5,1.5,2.3,3.5,2.3,5.7c0,2.1-0.8,4.1-2.3,5.7c-0.6,0.6-1.5,0.6-2.1,0c-0.6-0.6-0.6-1.5,0-2.1
			c0.9-0.9,1.5-2.2,1.5-3.5c0-1.3-0.5-2.6-1.5-3.5c-3.1-3.1-3.1-8.2,0-11.3c0.9-0.9,1.5-2.2,1.5-3.5c0-1.3-0.5-2.6-1.5-3.5
			c-3.1-3.1-3.1-8.2,0-11.3c1.9-1.9,1.9-5.1,0-7.1c-1.5-1.5-2.3-3.5-2.3-5.7s0.8-4.1,2.3-5.7c1.9-1.9,1.9-5.1,0-7.1
			c-1.5-1.5-2.3-3.5-2.3-5.7c0-2.1,0.8-4.1,2.3-5.7c0.9-0.9,1.5-2.2,1.5-3.5c0-1.3-0.5-2.6-1.5-3.5c-0.6-0.6-0.6-1.5,0-2.1
			C14.3,296.6,14.6,296.4,15,296.4z"/>
	</g>
	<g id="XMLID_443_">
		<path id="XMLID_1058_" class="st0" d="M20.8,314.4c0.4,0,0.8,0.1,1.1,0.4c3.1,3.1,3.1,8.2,0,11.3c-0.9,0.9-1.5,2.2-1.5,3.5
			c0,1.3,0.5,2.6,1.5,3.5c1.5,1.5,2.3,3.5,2.3,5.7c0,2.1-0.8,4.1-2.3,5.7c-0.9,0.9-1.5,2.2-1.5,3.5c0,1.3,0.5,2.6,1.5,3.5
			c3.1,3.1,3.1,8.2,0,11.3c-0.9,0.9-1.5,2.2-1.5,3.5c0,1.3,0.5,2.6,1.5,3.5c3.1,3.1,3.1,8.2,0,11.3c-0.9,0.9-1.4,2.1-1.5,3.4
			c0,0.8-0.8,1.5-1.6,1.5c-0.8,0-1.5-0.7-1.5-1.6c0.1-2,0.9-4,2.3-5.4c0.9-0.9,1.5-2.2,1.5-3.5c0-1.3-0.5-2.6-1.5-3.5
			c-1.5-1.5-2.3-3.5-2.3-5.7c0-2.1,0.8-4.1,2.3-5.7c1.9-1.9,1.9-5.1,0-7.1c-1.5-1.5-2.3-3.5-2.3-5.7c0-2.1,0.8-4.1,2.3-5.7
			c1.9-1.9,1.9-5.1,0-7.1c-1.5-1.5-2.3-3.5-2.3-5.7c0-2.1,0.8-4.1,2.3-5.7c0.9-0.9,1.5-2.2,1.5-3.5c0-1.3-0.5-2.6-1.5-3.5
			c-0.6-0.6-0.6-1.5,0-2.1C20.1,314.6,20.5,314.4,20.8,314.4z"/>
	</g>
	<g id="XMLID_442_">
		<path id="XMLID_1057_" class="st0" d="M26.6,314c0.4,0,0.8,0.1,1.1,0.4c3.1,3.1,3.1,8.2,0,11.3c-1.9,1.9-1.9,5.1,0,7.1
			c3.1,3.1,3.1,8.2,0,11.3c-1.9,1.9-1.9,5.1,0,7.1c1.5,1.5,2.3,3.5,2.3,5.7c0,2.1-0.8,4.1-2.3,5.7c-1.9,1.9-1.9,5.1,0,7.1
			c3.1,3.1,3.1,8.2,0,11.3c-0.9,0.9-1.4,2.1-1.5,3.4c0,0.8-0.7,1.5-1.6,1.4c-0.8,0-1.5-0.7-1.4-1.6c0.1-2,0.9-3.9,2.3-5.4
			c1.9-1.9,1.9-5.1,0-7.1c-3.1-3.1-3.1-8.2,0-11.3c0.9-0.9,1.5-2.2,1.5-3.5c0-1.3-0.5-2.6-1.5-3.5c-3.1-3.1-3.1-8.2,0-11.3
			c1.9-1.9,1.9-5.1,0-7.1c-1.5-1.5-2.3-3.5-2.3-5.7c0-2.1,0.8-4.1,2.3-5.7c1.9-1.9,1.9-5.1,0-7.1c-0.6-0.6-0.6-1.5,0-2.1
			C25.9,314.2,26.3,314,26.6,314z"/>
	</g>
</g>
<g id="XMLID_522_">
	<g id="XMLID_441_">
		<path id="XMLID_1056_" class="st0" d="M3.4,351.9c0.4,0,0.8,0.1,1.1,0.4c1.5,1.5,2.3,3.5,2.3,5.7c0,2.1-0.8,4.1-2.3,5.7
			c-0.9,0.9-1.5,2.2-1.5,3.5c0,1.3,0.5,2.6,1.5,3.5c3.1,3.1,3.1,8.2,0,11.3c-1.9,1.9-1.9,5.1,0,7.1c1.5,1.5,2.3,3.5,2.3,5.7
			c0,2.1-0.8,4.1-2.3,5.7c-0.9,0.9-1.5,2.2-1.5,3.5c0,1.3,0.5,2.6,1.5,3.5c1.5,1.5,2.3,3.5,2.3,5.7c0,2.1-0.8,4.1-2.3,5.7
			C3.5,419.7,3,421,3,422.3c0,1.3,0.5,2.6,1.5,3.5c1.5,1.5,2.3,3.5,2.3,5.7s-0.8,4.1-2.3,5.7c-0.6,0.6-1.5,0.6-2.1,0
			c-0.6-0.6-0.6-1.5,0-2.1c0.9-0.9,1.5-2.2,1.5-3.5c0-1.3-0.5-2.6-1.5-3.5c-3.1-3.1-3.1-8.2,0-11.3c0.9-0.9,1.5-2.2,1.5-3.5
			c0-1.3-0.5-2.6-1.5-3.5c-3.1-3.1-3.1-8.2,0-11.3c0.9-0.9,1.5-2.2,1.5-3.5c0-1.3-0.5-2.6-1.5-3.5c-1.5-1.5-2.3-3.5-2.3-5.7
			s0.8-4.1,2.3-5.7c1.9-1.9,1.9-5.1,0-7.1c-1.5-1.5-2.3-3.5-2.3-5.7c0-2.1,0.8-4.1,2.3-5.7c0.9-0.9,1.5-2.2,1.5-3.5
			c0-1.3-0.5-2.6-1.5-3.5c-0.6-0.6-0.6-1.5,0-2.1C2.6,352,3,351.9,3.4,351.9z"/>
	</g>
	<g id="XMLID_440_">
		<path id="XMLID_1055_" class="st0" d="M9.2,351.9c0.4,0,0.8,0.1,1.1,0.4c3.1,3.1,3.1,8.2,0,11.3c-0.9,0.9-1.5,2.2-1.5,3.5
			c0,1.3,0.5,2.6,1.5,3.5c3.1,3.1,3.1,8.2,0,11.3c-1.9,1.9-1.9,5.1,0,7.1c1.5,1.5,2.3,3.5,2.3,5.7c0,2.1-0.8,4.1-2.3,5.7
			c-1.9,1.9-1.9,5.1,0,7.1c3.1,3.1,3.1,8.2,0,11.3c-1.9,1.9-1.9,5.1,0,7.1c3.1,3.1,3.1,8.2,0,11.3c-0.6,0.6-1.5,0.6-2.1,0
			c-0.6-0.6-0.6-1.5,0-2.1c1.9-1.9,1.9-5.1,0-7.1c-3.1-3.1-3.1-8.2,0-11.3c1.9-1.9,1.9-5.1,0-7.1c-3.1-3.1-3.1-8.2,0-11.3
			c0.9-0.9,1.5-2.2,1.5-3.5c0-1.3-0.5-2.6-1.5-3.5c-3.1-3.1-3.1-8.2,0-11.3c1.9-1.9,1.9-5.1,0-7.1c-1.5-1.5-2.3-3.5-2.3-5.7
			c0-2.1,0.8-4.1,2.3-5.7c1.9-1.9,1.9-5.1,0-7.1c-0.6-0.6-0.6-1.5,0-2.1C8.4,352,8.8,351.9,9.2,351.9z"/>
	</g>
	<g id="XMLID_439_">
		<path id="XMLID_1054_" class="st0" d="M15,351.9c0.4,0,0.8,0.1,1.1,0.4c1.5,1.5,2.3,3.5,2.3,5.7c0,2.1-0.8,4.1-2.3,5.7
			c-0.9,0.9-1.5,2.2-1.5,3.5c0,1.3,0.5,2.6,1.5,3.5c3.1,3.1,3.1,8.2,0,11.3c-1.9,1.9-1.9,5.1,0,7.1c1.5,1.5,2.3,3.5,2.3,5.7
			c0,2.1-0.8,4.1-2.3,5.7c-0.9,0.9-1.5,2.2-1.5,3.5c0,1.3,0.5,2.6,1.5,3.5c1.5,1.5,2.3,3.5,2.3,5.7c0,2.1-0.8,4.1-2.3,5.7
			c-0.9,0.9-1.5,2.2-1.5,3.5c0,1.3,0.5,2.6,1.5,3.5c1.5,1.5,2.3,3.5,2.3,5.7s-0.8,4.1-2.3,5.7c-0.6,0.6-1.5,0.6-2.1,0
			c-0.6-0.6-0.6-1.5,0-2.1c0.9-0.9,1.5-2.2,1.5-3.5c0-1.3-0.5-2.6-1.5-3.5c-3.1-3.1-3.1-8.2,0-11.3c0.9-0.9,1.5-2.2,1.5-3.5
			c0-1.3-0.5-2.6-1.5-3.5c-3.1-3.1-3.1-8.2,0-11.3c0.9-0.9,1.5-2.2,1.5-3.5c0-1.3-0.5-2.6-1.5-3.5c-1.5-1.5-2.3-3.5-2.3-5.7
			s0.8-4.1,2.3-5.7c1.9-1.9,1.9-5.1,0-7.1c-1.5-1.5-2.3-3.5-2.3-5.7c0-2.1,0.8-4.1,2.3-5.7c0.9-0.9,1.5-2.2,1.5-3.5
			c0-1.3-0.5-2.6-1.5-3.5c-0.6-0.6-0.6-1.5,0-2.1C14.3,352,14.6,351.9,15,351.9z"/>
	</g>
	<g id="XMLID_438_">
		<path id="XMLID_1053_" class="st0" d="M20.8,369.9c0.4,0,0.8,0.1,1.1,0.4c3.1,3.1,3.1,8.2,0,11.3c-0.9,0.9-1.5,2.2-1.5,3.5
			c0,1.3,0.5,2.6,1.5,3.5c3.1,3.1,3.1,8.2,0,11.3c-0.9,0.9-1.5,2.2-1.5,3.5c0,1.3,0.5,2.6,1.5,3.5c3.1,3.1,3.1,8.2,0,11.3
			c-0.9,0.9-1.5,2.2-1.5,3.5c0,1.3,0.5,2.6,1.5,3.5c3.1,3.1,3.1,8.2,0,11.3c-0.9,0.9-1.4,2.1-1.5,3.4c0,0.8-0.8,1.5-1.6,1.5
			c-0.8,0-1.5-0.7-1.5-1.6c0.1-2,0.9-4,2.3-5.4c0.9-0.9,1.5-2.2,1.5-3.5c0-1.3-0.5-2.6-1.5-3.5c-3.1-3.1-3.1-8.2,0-11.3
			c0.9-0.9,1.5-2.2,1.5-3.5c0-1.3-0.5-2.6-1.5-3.5c-1.5-1.5-2.3-3.5-2.3-5.7c0-2.1,0.8-4.1,2.3-5.7c1.9-1.9,1.9-5.1,0-7.1
			c-1.5-1.5-2.3-3.5-2.3-5.7c0-2.1,0.8-4.1,2.3-5.7c0.9-0.9,1.5-2.2,1.5-3.5c0-1.3-0.5-2.6-1.5-3.5c-0.6-0.6-0.6-1.5,0-2.1
			C20.1,370,20.5,369.9,20.8,369.9z"/>
	</g>
	<g id="XMLID_437_">
		<path id="XMLID_1052_" class="st0" d="M26.6,369.5c0.4,0,0.8,0.1,1.1,0.4c3.1,3.1,3.1,8.2,0,11.3c-1.9,1.9-1.9,5.1,0,7.1
			c3.1,3.1,3.1,8.2,0,11.3c-1.9,1.9-1.9,5.1,0,7.1c1.5,1.5,2.3,3.5,2.3,5.7s-0.8,4.1-2.3,5.7c-1.9,1.9-1.9,5.1,0,7.1
			c3.1,3.1,3.1,8.2,0,11.3c-0.9,0.9-1.4,2.1-1.5,3.4c0,0.8-0.7,1.5-1.6,1.4c-0.8,0-1.5-0.7-1.4-1.6c0.1-2,0.9-3.9,2.3-5.4
			c1.9-1.9,1.9-5.1,0-7.1c-1.5-1.5-2.3-3.5-2.3-5.7s0.8-4.1,2.3-5.7c1.9-1.9,1.9-5.1,0-7.1c-3.1-3.1-3.1-8.2,0-11.3
			c1.9-1.9,1.9-5.1,0-7.1c-3.1-3.1-3.1-8.2,0-11.3c1.9-1.9,1.9-5.1,0-7.1c-0.6-0.6-0.6-1.5,0-2.1C25.9,369.6,26.3,369.5,26.6,369.5z
			"/>
	</g>
</g>
<g id="XMLID_516_">
	<g id="XMLID_436_">
		<path id="XMLID_1051_" class="st0" d="M3.4,407.3c0.4,0,0.8,0.1,1.1,0.4c1.5,1.5,2.3,3.5,2.3,5.7s-0.8,4.1-2.3,5.7
			C3.5,420,3,421.3,3,422.6c0,1.3,0.5,2.6,1.5,3.5c3.1,3.1,3.1,8.2,0,11.3c-1.9,1.9-1.9,5.1,0,7.1c1.5,1.5,2.3,3.5,2.3,5.7
			c0,2.1-0.8,4.1-2.3,5.7c-1.9,1.9-1.9,5.1,0,7.1c1.5,1.5,2.3,3.5,2.3,5.7s-0.8,4.1-2.3,5.7c-0.9,0.9-1.5,2.2-1.5,3.5
			c0,1.3,0.5,2.6,1.5,3.5c1.5,1.5,2.3,3.5,2.3,5.7c0,2.1-0.8,4.1-2.3,5.7c-0.6,0.6-1.5,0.6-2.1,0c-0.6-0.6-0.6-1.5,0-2.1
			c0.9-0.9,1.5-2.2,1.5-3.5c0-1.3-0.5-2.6-1.5-3.5c-3.1-3.1-3.1-8.2,0-11.3c0.9-0.9,1.5-2.2,1.5-3.5c0-1.3-0.5-2.6-1.5-3.5
			c-3.1-3.1-3.1-8.2,0-11.3c0.9-0.9,1.5-2.2,1.5-3.5c0-1.3-0.5-2.6-1.5-3.5C0.8,445.2,0,443.2,0,441c0-2.1,0.8-4.1,2.3-5.7
			c0.9-0.9,1.5-2.2,1.5-3.5c0-1.3-0.5-2.6-1.5-3.5c-3.1-3.1-3.1-8.2,0-11.3c0.9-0.9,1.5-2.2,1.5-3.5c0-1.3-0.5-2.6-1.5-3.5
			c-0.6-0.6-0.6-1.5,0-2.1C2.6,407.5,3,407.3,3.4,407.3z"/>
	</g>
	<g id="XMLID_435_">
		<path id="XMLID_1050_" class="st0" d="M9.2,407.3c0.4,0,0.8,0.1,1.1,0.4c3.1,3.1,3.1,8.2,0,11.3c-0.9,0.9-1.5,2.2-1.5,3.5
			c0,1.3,0.5,2.6,1.5,3.5c3.1,3.1,3.1,8.2,0,11.3c-1.9,1.9-1.9,5.1,0,7.1c1.5,1.5,2.3,3.5,2.3,5.7c0,2.1-0.8,4.1-2.3,5.7
			c-1.9,1.9-1.9,5.1,0,7.1c3.1,3.1,3.1,8.2,0,11.3c-1.9,1.9-1.9,5.1,0,7.1c3.1,3.1,3.1,8.2,0,11.3c-0.6,0.6-1.5,0.6-2.1,0
			c-0.6-0.6-0.6-1.5,0-2.1c1.9-1.9,1.9-5.1,0-7.1c-3.1-3.1-3.1-8.2,0-11.3c1.9-1.9,1.9-5.1,0-7.1c-3.1-3.1-3.1-8.2,0-11.3
			c0.9-0.9,1.5-2.2,1.5-3.5c0-1.3-0.5-2.6-1.5-3.5c-3.1-3.1-3.1-8.2,0-11.3c1.9-1.9,1.9-5.1,0-7.1c-3.1-3.1-3.1-8.2,0-11.3
			c1.9-1.9,1.9-5.1,0-7.1c-0.6-0.6-0.6-1.5,0-2.1C8.4,407.5,8.8,407.3,9.2,407.3z"/>
	</g>
	<g id="XMLID_434_">
		<path id="XMLID_1049_" class="st0" d="M15,407.3c0.4,0,0.8,0.1,1.1,0.4c1.5,1.5,2.3,3.5,2.3,5.7s-0.8,4.1-2.3,5.7
			c-0.9,0.9-1.5,2.2-1.5,3.5c0,1.3,0.5,2.6,1.5,3.5c3.1,3.1,3.1,8.2,0,11.3c-1.9,1.9-1.9,5.1,0,7.1c1.5,1.5,2.3,3.5,2.3,5.7
			c0,2.1-0.8,4.1-2.3,5.7c-1.9,1.9-1.9,5.1,0,7.1c1.5,1.5,2.3,3.5,2.3,5.7s-0.8,4.1-2.3,5.7c-0.9,0.9-1.5,2.2-1.5,3.5
			c0,1.3,0.5,2.6,1.5,3.5c1.5,1.5,2.3,3.5,2.3,5.7c0,2.1-0.8,4.1-2.3,5.7c-0.6,0.6-1.5,0.6-2.1,0c-0.6-0.6-0.6-1.5,0-2.1
			c0.9-0.9,1.5-2.2,1.5-3.5c0-1.3-0.5-2.6-1.5-3.5c-3.1-3.1-3.1-8.2,0-11.3c0.9-0.9,1.5-2.2,1.5-3.5c0-1.3-0.5-2.6-1.5-3.5
			c-3.1-3.1-3.1-8.2,0-11.3c0.9-0.9,1.5-2.2,1.5-3.5c0-1.3-0.5-2.6-1.5-3.5c-1.5-1.5-2.3-3.5-2.3-5.7c0-2.1,0.8-4.1,2.3-5.7
			c0.9-0.9,1.5-2.2,1.5-3.5c0-1.3-0.5-2.6-1.5-3.5c-3.1-3.1-3.1-8.2,0-11.3c0.9-0.9,1.5-2.2,1.5-3.5c0-1.3-0.5-2.6-1.5-3.5
			c-0.6-0.6-0.6-1.5,0-2.1C14.3,407.5,14.6,407.3,15,407.3z"/>
	</g>
	<g id="XMLID_433_">
		<path id="XMLID_1048_" class="st0" d="M20.8,425.3c0.4,0,0.8,0.1,1.1,0.4c3.1,3.1,3.1,8.2,0,11.3c-0.9,0.9-1.5,2.2-1.5,3.5
			c0,1.3,0.5,2.6,1.5,3.5c1.5,1.5,2.3,3.5,2.3,5.7c0,2.1-0.8,4.1-2.3,5.7c-0.9,0.9-1.5,2.2-1.5,3.5c0,1.3,0.5,2.6,1.5,3.5
			c3.1,3.1,3.1,8.2,0,11.3c-0.9,0.9-1.5,2.2-1.5,3.5c0,1.3,0.5,2.6,1.5,3.5c1.5,1.5,2.3,3.5,2.3,5.7s-0.8,4.1-2.3,5.7
			c-0.9,0.9-1.4,2.1-1.5,3.4c0,0.8-0.8,1.5-1.6,1.5c-0.8,0-1.5-0.7-1.5-1.6c0.1-2,0.9-4,2.3-5.4c0.9-0.9,1.5-2.2,1.5-3.5
			c0-1.3-0.5-2.6-1.5-3.5c-3.1-3.1-3.1-8.2,0-11.3c0.9-0.9,1.5-2.2,1.5-3.5c0-1.3-0.5-2.6-1.5-3.5c-3.1-3.1-3.1-8.2,0-11.3
			c1.9-1.9,1.9-5.1,0-7.1c-1.5-1.5-2.3-3.5-2.3-5.7c0-2.1,0.8-4.1,2.3-5.7c0.9-0.9,1.5-2.2,1.5-3.5c0-1.3-0.5-2.6-1.5-3.5
			c-0.6-0.6-0.6-1.5,0-2.1C20.1,425.5,20.5,425.3,20.8,425.3z"/>
	</g>
	<g id="XMLID_432_">
		<path id="XMLID_1047_" class="st0" d="M26.6,425c0.4,0,0.8,0.1,1.1,0.4c3.1,3.1,3.1,8.2,0,11.3c-0.9,0.9-1.5,2.2-1.5,3.5
			c0,1.3,0.5,2.6,1.5,3.5c3.1,3.1,3.1,8.2,0,11.3c-1.9,1.9-1.9,5.1,0,7.1c3.1,3.1,3.1,8.2,0,11.3c-1.9,1.9-1.9,5.1,0,7.1
			c3.1,3.1,3.1,8.2,0,11.3c-0.9,0.9-1.4,2.1-1.5,3.4c0,0.8-0.7,1.5-1.6,1.4c-0.8,0-1.5-0.7-1.4-1.6c0.1-2,0.9-3.9,2.3-5.4
			c1.9-1.9,1.9-5.1,0-7.1c-3.1-3.1-3.1-8.2,0-11.3c1.9-1.9,1.9-5.1,0-7.1c-3.1-3.1-3.1-8.2,0-11.3c1.9-1.9,1.9-5.1,0-7.1
			c-1.5-1.5-2.3-3.5-2.3-5.7c0-2.1,0.8-4.1,2.3-5.7c1.9-1.9,1.9-5.1,0-7.1c-0.6-0.6-0.6-1.5,0-2.1C25.9,425.1,26.3,425,26.6,425z"/>
	</g>
</g>
<g id="XMLID_510_">
	<g id="XMLID_431_">
		<path id="XMLID_1046_" class="st0" d="M3.4,462.8c0.4,0,0.8,0.1,1.1,0.4c1.5,1.5,2.3,3.5,2.3,5.7c0,2.1-0.8,4.1-2.3,5.7
			c-0.9,0.9-1.5,2.2-1.5,3.5c0,1.3,0.5,2.6,1.5,3.5c1.5,1.5,2.3,3.5,2.3,5.7s-0.8,4.1-2.3,5.7c-1.9,1.9-1.9,5.1,0,7.1
			c1.5,1.5,2.3,3.5,2.3,5.7s-0.8,4.1-2.3,5.7c-1.9,1.9-1.9,5.1,0,7.1c3.1,3.1,3.1,8.2,0,11.3c-0.9,0.9-1.5,2.2-1.5,3.5
			c0,1.3,0.5,2.6,1.5,3.5c1.5,1.5,2.3,3.5,2.3,5.7c0,2.1-0.8,4.1-2.3,5.7c-0.6,0.6-1.5,0.6-2.1,0c-0.6-0.6-0.6-1.5,0-2.1
			c0.9-0.9,1.5-2.2,1.5-3.5c0-1.3-0.5-2.6-1.5-3.5c-1.5-1.5-2.3-3.5-2.3-5.7c0-2.1,0.8-4.1,2.3-5.7c1.9-1.9,1.9-5.1,0-7.1
			C0.8,519,0,517,0,514.9c0-2.1,0.8-4.1,2.3-5.7c0.9-0.9,1.5-2.2,1.5-3.5c0-1.3-0.5-2.6-1.5-3.5c-3.1-3.1-3.1-8.2,0-11.3
			c0.9-0.9,1.5-2.2,1.5-3.5c0-1.3-0.5-2.6-1.5-3.5c-3.1-3.1-3.1-8.2,0-11.3c0.9-0.9,1.5-2.2,1.5-3.5c0-1.3-0.5-2.6-1.5-3.5
			c-0.6-0.6-0.6-1.5,0-2.1C2.6,462.9,3,462.8,3.4,462.8z"/>
	</g>
	<g id="XMLID_430_">
		<path id="XMLID_1045_" class="st0" d="M9.2,462.8c0.4,0,0.8,0.1,1.1,0.4c3.1,3.1,3.1,8.2,0,11.3c-1.9,1.9-1.9,5.1,0,7.1
			c3.1,3.1,3.1,8.2,0,11.3c-1.9,1.9-1.9,5.1,0,7.1c1.5,1.5,2.3,3.5,2.3,5.7s-0.8,4.1-2.3,5.7c-1.9,1.9-1.9,5.1,0,7.1
			c3.1,3.1,3.1,8.2,0,11.3c-0.9,0.9-1.5,2.2-1.5,3.5c0,1.3,0.5,2.6,1.5,3.5c3.1,3.1,3.1,8.2,0,11.3c-0.6,0.6-1.5,0.6-2.1,0
			c-0.6-0.6-0.6-1.5,0-2.1c1.9-1.9,1.9-5.1,0-7.1c-1.5-1.5-2.3-3.5-2.3-5.7c0-2.1,0.8-4.1,2.3-5.7c1.9-1.9,1.9-5.1,0-7.1
			c-3.1-3.1-3.1-8.2,0-11.3c0.9-0.9,1.5-2.2,1.5-3.5c0-1.3-0.5-2.6-1.5-3.5c-3.1-3.1-3.1-8.2,0-11.3c1.9-1.9,1.9-5.1,0-7.1
			c-3.1-3.1-3.1-8.2,0-11.3c1.9-1.9,1.9-5.1,0-7.1c-0.6-0.6-0.6-1.5,0-2.1C8.4,462.9,8.8,462.8,9.2,462.8z"/>
	</g>
	<g id="XMLID_429_">
		<path id="XMLID_1044_" class="st0" d="M15,462.8c0.4,0,0.8,0.1,1.1,0.4c1.5,1.5,2.3,3.5,2.3,5.7c0,2.1-0.8,4.1-2.3,5.7
			c-0.9,0.9-1.5,2.2-1.5,3.5c0,1.3,0.5,2.6,1.5,3.5c1.5,1.5,2.3,3.5,2.3,5.7s-0.8,4.1-2.3,5.7c-1.9,1.9-1.9,5.1,0,7.1
			c1.5,1.5,2.3,3.5,2.3,5.7s-0.8,4.1-2.3,5.7c-1.9,1.9-1.9,5.1,0,7.1c3.1,3.1,3.1,8.2,0,11.3c-0.9,0.9-1.5,2.2-1.5,3.5
			c0,1.3,0.5,2.6,1.5,3.5c1.5,1.5,2.3,3.5,2.3,5.7c0,2.1-0.8,4.1-2.3,5.7c-0.6,0.6-1.5,0.6-2.1,0c-0.6-0.6-0.6-1.5,0-2.1
			c0.9-0.9,1.5-2.2,1.5-3.5c0-1.3-0.5-2.6-1.5-3.5c-1.5-1.5-2.3-3.5-2.3-5.7c0-2.1,0.8-4.1,2.3-5.7c1.9-1.9,1.9-5.1,0-7.1
			c-1.5-1.5-2.3-3.5-2.3-5.7c0-2.1,0.8-4.1,2.3-5.7c0.9-0.9,1.5-2.2,1.5-3.5c0-1.3-0.5-2.6-1.5-3.5c-3.1-3.1-3.1-8.2,0-11.3
			c0.9-0.9,1.5-2.2,1.5-3.5c0-1.3-0.5-2.6-1.5-3.5c-3.1-3.1-3.1-8.2,0-11.3c0.9-0.9,1.5-2.2,1.5-3.5c0-1.3-0.5-2.6-1.5-3.5
			c-0.6-0.6-0.6-1.5,0-2.1C14.3,462.9,14.6,462.8,15,462.8z"/>
	</g>
	<g id="XMLID_428_">
		<path id="XMLID_1043_" class="st0" d="M20.8,480.8c0.4,0,0.8,0.1,1.1,0.4c1.5,1.5,2.3,3.5,2.3,5.7s-0.8,4.1-2.3,5.7
			c-0.9,0.9-1.5,2.2-1.5,3.5c0,1.3,0.5,2.6,1.5,3.5c1.5,1.5,2.3,3.5,2.3,5.7c0,2.1-0.8,4.1-2.3,5.7c-1.9,1.9-1.9,5.1,0,7.1
			c1.5,1.5,2.3,3.5,2.3,5.7c0,2.1-0.8,4.1-2.3,5.7c-0.9,0.9-1.5,2.2-1.5,3.5c0,1.3,0.5,2.6,1.5,3.5c1.5,1.5,2.3,3.5,2.3,5.7
			c0,2.1-0.8,4.1-2.3,5.7c-0.9,0.9-1.4,2.1-1.5,3.4c0,0.8-0.8,1.5-1.6,1.5c-0.8,0-1.5-0.7-1.5-1.6c0.1-2,0.9-4,2.3-5.4
			c0.9-0.9,1.5-2.2,1.5-3.5c0-1.3-0.5-2.6-1.5-3.5c-3.1-3.1-3.1-8.2,0-11.3c0.9-0.9,1.5-2.2,1.5-3.5c0-1.3-0.5-2.6-1.5-3.5
			c-3.1-3.1-3.1-8.2,0-11.3c1.9-1.9,1.9-5.1,0-7.1c-1.5-1.5-2.3-3.5-2.3-5.7s0.8-4.1,2.3-5.7c0.9-0.9,1.5-2.2,1.5-3.5
			c0-1.3-0.5-2.6-1.5-3.5c-0.6-0.6-0.6-1.5,0-2.1C20.1,481,20.5,480.8,20.8,480.8z"/>
	</g>
	<g id="XMLID_427_">
		<path id="XMLID_1042_" class="st0" d="M26.6,480.4c0.4,0,0.8,0.1,1.1,0.4c3.1,3.1,3.1,8.2,0,11.3c-0.9,0.9-1.5,2.2-1.5,3.5
			c0,1.3,0.5,2.6,1.5,3.5c3.1,3.1,3.1,8.2,0,11.3c-1.9,1.9-1.9,5.1,0,7.1c1.5,1.5,2.3,3.5,2.3,5.7c0,2.1-0.8,4.1-2.3,5.7
			c-1.9,1.9-1.9,5.1,0,7.1c3.1,3.1,3.1,8.2,0,11.3c-0.9,0.9-1.4,2.1-1.5,3.4c0,0.8-0.7,1.5-1.6,1.4c-0.8,0-1.5-0.7-1.4-1.6
			c0.1-2,0.9-3.9,2.3-5.4c1.9-1.9,1.9-5.1,0-7.1c-3.1-3.1-3.1-8.2,0-11.3c1.9-1.9,1.9-5.1,0-7.1c-3.1-3.1-3.1-8.2,0-11.3
			c1.9-1.9,1.9-5.1,0-7.1c-1.5-1.5-2.3-3.5-2.3-5.7s0.8-4.1,2.3-5.7c1.9-1.9,1.9-5.1,0-7.1c-0.6-0.6-0.6-1.5,0-2.1
			C25.9,480.6,26.3,480.4,26.6,480.4z"/>
	</g>
</g>
<g id="XMLID_504_">
	<g id="XMLID_90_">
		<path id="XMLID_1041_" class="st0" d="M3.4,518.3c0.4,0,0.8,0.1,1.1,0.4c1.5,1.5,2.3,3.5,2.3,5.7c0,2.1-0.8,4.1-2.3,5.7
			c-1.9,1.9-1.9,5.1,0,7.1c1.5,1.5,2.3,3.5,2.3,5.7s-0.8,4.1-2.3,5.7c-1.9,1.9-1.9,5.1,0,7.1c1.5,1.5,2.3,3.5,2.3,5.7
			s-0.8,4.1-2.3,5.7c-1.9,1.9-1.9,5.1,0,7.1c0.6,0.6,0.6,1.5,0,2.1c-0.6,0.6-1.5,0.6-2.1,0c-3.1-3.1-3.1-8.2,0-11.3
			c0.9-0.9,1.5-2.2,1.5-3.5c0-1.3-0.5-2.6-1.5-3.5c-1.5-1.5-2.3-3.5-2.3-5.7s0.8-4.1,2.3-5.7c0.9-0.9,1.5-2.2,1.5-3.5
			c0-1.3-0.5-2.6-1.5-3.5c-1.5-1.5-2.3-3.5-2.3-5.7s0.8-4.1,2.3-5.7c0.9-0.9,1.5-2.2,1.5-3.5c0-1.3-0.5-2.6-1.5-3.5
			c-0.6-0.6-0.6-1.5,0-2.1C2.6,518.4,3,518.3,3.4,518.3z"/>
	</g>
	<g id="XMLID_89_">
		<path id="XMLID_1040_" class="st0" d="M9.2,518.3c0.4,0,0.8,0.1,1.1,0.4c3.1,3.1,3.1,8.2,0,11.3c-1.9,1.9-1.9,5.1,0,7.1
			c3.1,3.1,3.1,8.2,0,11.3c-1.9,1.9-1.9,5.1,0,7.1c1.5,1.5,2.3,3.5,2.3,5.7s-0.8,4.1-2.3,5.7c-1.9,1.9-1.9,5.1,0,7.1L8.2,576
			c-3.1-3.1-3.1-8.2,0-11.3c0.9-0.9,1.5-2.2,1.5-3.5c0-1.3-0.5-2.6-1.5-3.5c-3.1-3.1-3.1-8.2,0-11.3c1.9-1.9,1.9-5.1,0-7.1
			c-1.5-1.5-2.3-3.5-2.3-5.7s0.8-4.1,2.3-5.7c1.9-1.9,1.9-5.1,0-7.1c-0.6-0.6-0.6-1.5,0-2.1C8.4,518.4,8.8,518.3,9.2,518.3z"/>
	</g>
	<g id="XMLID_88_">
		<path id="XMLID_1039_" class="st0" d="M15,518.3c0.4,0,0.8,0.1,1.1,0.4c1.5,1.5,2.3,3.5,2.3,5.7c0,2.1-0.8,4.1-2.3,5.7
			c-1.9,1.9-1.9,5.1,0,7.1c1.5,1.5,2.3,3.5,2.3,5.7s-0.8,4.1-2.3,5.7c-1.9,1.9-1.9,5.1,0,7.1c1.5,1.5,2.3,3.5,2.3,5.7
			s-0.8,4.1-2.3,5.7c-1.9,1.9-1.9,5.1,0,7.1c0.6,0.6,0.6,1.5,0,2.1c-0.6,0.6-1.5,0.6-2.1,0c-3.1-3.1-3.1-8.2,0-11.3
			c0.9-0.9,1.5-2.2,1.5-3.5c0-1.3-0.5-2.6-1.5-3.5c-1.5-1.5-2.3-3.5-2.3-5.7s0.8-4.1,2.3-5.7c0.9-0.9,1.5-2.2,1.5-3.5
			c0-1.3-0.5-2.6-1.5-3.5c-1.5-1.5-2.3-3.5-2.3-5.7s0.8-4.1,2.3-5.7c0.9-0.9,1.5-2.2,1.5-3.5c0-1.3-0.5-2.6-1.5-3.5
			c-0.6-0.6-0.6-1.5,0-2.1C14.3,518.4,14.6,518.3,15,518.3z"/>
	</g>
	<g id="XMLID_87_">
		<path id="XMLID_1038_" class="st0" d="M20.8,536.3c0.4,0,0.8,0.1,1.1,0.4c1.5,1.5,2.3,3.5,2.3,5.7s-0.8,4.1-2.3,5.7
			c-1.9,1.9-1.9,5.1,0,7.1c1.5,1.5,2.3,3.5,2.3,5.7c0,2.1-0.8,4.1-2.3,5.7c-1.9,1.9-1.9,5.1,0,7.1c0.6,0.6,0.6,1.5,0,2.1
			c-0.6,0.6-1.5,0.6-2.1,0c-1.5-1.5-2.3-3.5-2.3-5.7c0-2.1,0.8-4.1,2.3-5.7c0.9-0.9,1.5-2.2,1.5-3.5c0-1.3-0.5-2.6-1.5-3.5
			c-3.1-3.1-3.1-8.2,0-11.3c0.9-0.9,1.5-2.2,1.5-3.5c0-1.3-0.5-2.6-1.5-3.5c-0.6-0.6-0.6-1.5,0-2.1
			C20.1,536.4,20.5,536.3,20.8,536.3z"/>
	</g>
	<g id="XMLID_41_">
		<path id="XMLID_1037_" class="st0" d="M26.6,535.9c0.4,0,0.8,0.1,1.1,0.4c3.1,3.1,3.1,8.2,0,11.3c-0.9,0.9-1.5,2.2-1.5,3.5
			c0,1.3,0.5,2.6,1.5,3.5c3.1,3.1,3.1,8.2,0,11.3c-0.9,0.9-1.5,2.2-1.5,3.5c0,1.3,0.5,2.6,1.5,3.5c0.6,0.6,0.6,1.5,0,2.1
			c-0.6,0.6-1.5,0.6-2.1,0c-3.1-3.1-3.1-8.2,0-11.3c1.9-1.9,1.9-5.1,0-7.1c-1.5-1.5-2.3-3.5-2.3-5.7c0-2.1,0.8-4.1,2.3-5.7
			c1.9-1.9,1.9-5.1,0-7.1c-0.6-0.6-0.6-1.5,0-2.1C25.9,536,26.3,535.9,26.6,535.9z"/>
	</g>
</g>
</svg>
